# xmcd
#
# Track frame offsets:
#	150
#	22316
#	42885
#	67632
#	80483
#	99358
#	115691
#	136442
#	153533
#	177481
#	187937
#	207547
#	228137
#
# Disc length: 3171 seconds
# Revision: 0
# Processed by: cddbd v1.5.2PL0 Copyright (c) Steve Scherf et al.
# Submitted via: dBpowerAMP V12.0
#
DISCID=a70c610d
DTITLE=Igor Prado Band - Blues and Soul Sessions
DYEAR=2012
DGENRE=Blues
TTITLE0=Prado's Special
TTITLE1=It Ain't No Fun To Me
TTITLE2=You Hurt Me
TTITLE3=Don't Turn Your Heater On
TTITLE4=Darling Darling Darling
TTITLE5=I'm Living Off The Love You Give
TTITLE6=If I Can't Have You
TTITLE7=One For Duck Dunn
TTITLE8=Tramp
TTITLE9=Lucky Loser
TTITLE10=Funky Screwdriver
TTITLE11=It's Your Thing
TTITLE12=Keep Knockin'
EXTD=
EXTT0=
EXTT1=
EXTT2=
EXTT3=
EXTT4=
EXTT5=
EXTT6=
EXTT7=
EXTT8=
EXTT9=
EXTT10=
EXTT11=
EXTT12=
PLAYORDER=
